<svg version="1.1" id="Layer_1" xmlns="http://www.w3.org/2000/svg" xmlns:xlink="http://www.w3.org/1999/xlink" x="0px" y="0px"
	 width="100%" viewBox="0 0 6250 6250" enable-background="new 0 0 6250 6250" xml:space="preserve">
<path fill="#FFFFFE" opacity="1.000000" stroke="none" 
	d="
M3340.000000,6256.000000 
	C2226.666748,6256.000000 1115.333740,6256.000000 4.000447,6256.000000 
	C4.000299,4172.000488 4.000299,2088.001221 4.000149,4.001287 
	C2087.999023,4.000857 4171.998047,4.000857 6255.998047,4.000429 
	C6255.998535,2087.998779 6255.998535,4171.997559 6255.999023,6255.998047 
	C5284.666504,6256.000000 4313.333496,6256.000000 3340.000000,6256.000000 
M3832.002197,552.959106 
	C3828.673828,552.901001 3825.345215,552.792053 3822.016846,552.791992 
	C3401.359131,552.782898 2980.701660,552.781799 2560.043945,552.780640 
	C2556.710693,552.780579 2553.353271,552.535889 2550.050537,552.854309 
	C2546.314697,553.214417 2542.627930,554.082031 2537.760498,554.931152 
	C2537.640625,564.545349 2537.440186,573.112305 2537.440186,581.679199 
	C2537.441162,1406.328125 2537.458496,2230.977051 2537.471191,3055.625977 
	C2537.473145,3189.623047 2537.291260,3323.620361 2537.537109,3457.616943 
	C2537.630127,3508.341553 2535.181152,3558.989502 2530.457031,3609.383301 
	C2525.051025,3667.049805 2516.197998,3724.290283 2501.307861,3780.540039 
	C2486.065674,3838.117920 2465.720703,3893.470215 2435.941162,3945.130859 
	C2409.053711,3991.774658 2375.190430,4032.693604 2332.999268,4066.286865 
	C2274.252930,4113.061523 2206.418457,4139.112793 2132.941895,4150.916016 
	C2090.749512,4157.693848 2048.104248,4159.695801 2005.346313,4157.335938 
	C1965.943604,4155.161621 1927.083252,4149.029785 1889.358398,4137.701172 
	C1825.493164,4118.521973 1767.831543,4087.427979 1716.407959,4044.697021 
	C1666.729736,4003.415771 1624.546875,3955.817383 1592.076904,3899.888672 
	C1549.620239,3826.758301 1530.366699,3747.349609 1528.799072,3663.239014 
	C1528.275757,3635.169189 1531.009033,3607.384766 1534.515625,3579.551758 
	C1539.542114,3539.653320 1549.495117,3501.124023 1563.908081,3463.716797 
	C1592.948853,3388.344482 1638.804199,3324.421875 1697.710693,3269.666504 
	C1737.512451,3232.669434 1781.835083,3202.247559 1831.873657,3180.597656 
	C1896.529541,3152.623291 1964.215210,3140.802734 2034.486816,3143.011230 
	C2067.301270,3144.042480 2099.345215,3149.912842 2130.818848,3158.908936 
	C2187.081543,3174.990234 2238.329834,3201.505859 2286.231201,3234.734619 
	C2299.908447,3244.222656 2313.117432,3254.386719 2326.511719,3264.280518 
	C2329.729736,3266.657471 2332.777344,3269.401123 2338.468506,3266.296875 
	C2340.381592,3259.487305 2339.444336,3251.556152 2339.444824,3243.776611 
	C2339.485596,2782.453125 2339.478760,2321.129883 2339.477051,1859.806519 
	C2339.477051,1847.806763 2339.634277,1835.804565 2339.416748,1823.808838 
	C2339.347656,1820.004150 2338.297852,1816.217407 2337.757568,1812.805786 
	C2334.965576,1811.583618 2333.218994,1810.308716 2331.343994,1810.077759 
	C2313.489746,1807.878418 2295.639648,1805.585327 2277.737793,1803.841187 
	C2243.914551,1800.545776 2210.089355,1797.187134 2176.207764,1794.599731 
	C2128.366699,1790.946167 2080.519043,1786.790894 2032.593384,1784.967163 
	C1952.543945,1781.921021 1872.742676,1786.689087 1793.082153,1795.228027 
	C1744.001587,1800.489014 1695.281494,1807.904907 1646.955078,1817.486816 
	C1606.512695,1825.505737 1566.459473,1835.478394 1526.667603,1846.589478 
	C1448.317505,1868.467041 1372.203247,1896.257690 1298.138428,1929.733398 
	C1178.054565,1984.008911 1066.369995,2052.290527 962.016724,2132.620850 
	C879.478516,2196.157715 802.727722,2266.131348 730.860474,2341.514160 
	C653.449341,2422.711914 582.620605,2509.242432 519.742249,2602.171631 
	C444.101318,2713.962646 381.096283,2832.411133 332.658112,2958.536133 
	C311.169861,3014.488037 291.681854,3071.076416 276.779510,3129.133301 
	C266.522980,3169.091064 256.822174,3209.215088 248.038345,3249.518799 
	C242.087402,3276.823975 237.752411,3304.506836 233.456543,3332.139404 
	C230.081375,3353.849854 227.403580,3375.695557 225.247314,3397.562988 
	C221.390594,3436.676270 216.916809,3475.788086 214.912476,3515.013184 
	C209.872986,3613.636475 210.950012,3712.192139 219.249832,3810.715332 
	C224.121765,3868.548584 231.489487,3926.009521 241.197922,3983.120605 
	C248.889175,4028.364990 258.962799,4073.199707 270.278198,4117.766602 
	C291.446594,4201.140625 318.546234,4282.443848 351.671387,4361.786621 
	C423.365509,4533.511719 521.516357,4688.839844 642.615723,4829.796387 
	C735.428406,4937.827637 838.423340,5035.146484 952.450684,5120.619629 
	C1058.896240,5200.409180 1172.816528,5267.401855 1294.666626,5320.983398 
	C1373.402832,5355.604980 1454.340210,5383.825195 1537.185547,5406.642578 
	C1564.761597,5414.237305 1592.599243,5420.999023 1620.543457,5427.106445 
	C1647.195190,5432.931152 1674.058105,5437.914062 1700.979126,5442.352051 
	C1737.117188,5448.311035 1773.286377,5454.376465 1809.652588,5458.572754 
	C1846.705444,5462.849121 1883.998535,5465.109863 1921.212158,5467.912598 
	C2037.945190,5476.704102 2154.382568,5472.342773 2270.433594,5458.208008 
	C2309.393799,5453.462891 2348.195557,5446.717773 2386.686279,5438.980957 
	C2449.994385,5426.255859 2512.440430,5410.018555 2574.091553,5390.549805 
	C2659.284912,5363.645996 2741.849609,5330.319824 2822.635010,5292.364746 
	C2828.636475,5289.545410 2834.942627,5287.375000 2841.176025,5288.364746 
	C2842.884521,5295.417969 2845.909668,5300.466309 2854.575684,5300.133789 
	C2865.889404,5299.700195 2877.235107,5300.143066 2888.567139,5300.143066 
	C3515.173096,5300.145020 4141.779297,5300.172363 4768.385254,5300.083008 
	C4831.679199,5300.073730 4895.006348,5301.258301 4958.208984,5296.118164 
	C4999.363281,5292.770996 5040.677734,5290.986816 5081.690430,5286.426758 
	C5121.354980,5282.017090 5160.734863,5275.017090 5200.220703,5269.032715 
	C5244.359375,5262.344238 5287.973145,5252.798828 5331.054688,5241.413086 
	C5408.397949,5220.972168 5483.742188,5194.710938 5556.417480,5160.846680 
	C5640.898926,5121.480957 5718.848145,5072.059570 5789.449707,5011.340332 
	C5838.577148,4969.089844 5882.865234,4921.994141 5921.873047,4870.211914 
	C5970.179199,4806.084473 6009.791504,4736.756348 6041.785645,4663.163086 
	C6051.862305,4639.983398 6060.518066,4616.166504 6069.282227,4592.440918 
	C6082.676758,4556.184570 6093.105469,4519.016113 6103.166016,4481.704590 
	C6115.144043,4437.279297 6124.288086,4392.266602 6131.314453,4346.892090 
	C6137.422363,4307.447754 6141.844238,4267.753906 6145.802246,4227.967773 
	C6151.749512,4168.179199 6152.624023,4108.270020 6154.737793,4048.383057 
	C6155.581543,4024.478271 6153.706543,4000.462402 6152.709961,3976.511719 
	C6151.407715,3945.232178 6150.064941,3913.947998 6148.134277,3882.703125 
	C6146.820312,3861.439209 6145.013672,3840.172852 6142.434082,3819.028809 
	C6139.694336,3796.570801 6135.613281,3774.279785 6132.416504,3751.873047 
	C6126.013184,3706.998535 6116.638672,3662.696777 6104.923828,3618.980225 
	C6091.826172,3570.105957 6076.395508,3521.971191 6057.534180,3474.872559 
	C6026.190430,3396.605957 5987.088379,3322.675781 5938.433105,3253.852783 
	C5892.874512,3189.410889 5840.673340,3130.969727 5781.598633,3078.462891 
	C5717.040527,3021.081787 5646.736816,2972.034668 5571.236328,2930.466309 
	C5508.748047,2896.062256 5444.047363,2866.365967 5376.946289,2841.812500 
	C5324.391113,2822.581543 5271.381836,2805.023193 5217.250977,2790.820557 
	C5202.567383,2786.968018 5188.062500,2782.435059 5173.285645,2778.159668 
	C5177.481445,2769.951660 5177.501465,2770.012939 5182.453613,2768.399414 
	C5215.982910,2757.475830 5249.746582,2747.210693 5282.968750,2735.420166 
	C5332.582031,2717.812744 5380.997070,2697.108643 5427.955078,2673.336426 
	C5489.845703,2642.004883 5549.096191,2606.304199 5604.532227,2564.319580 
	C5662.165039,2520.671143 5714.482422,2471.533691 5760.815918,2416.117676 
	C5802.402832,2366.379150 5837.734375,2312.469971 5867.431152,2254.754639 
	C5895.869629,2199.483887 5918.797852,2142.125488 5936.119141,2082.481934 
	C5950.435059,2033.187012 5961.210938,1983.184326 5969.171387,1932.411499 
	C5976.718750,1884.273560 5981.150391,1835.891357 5983.292969,1787.382812 
	C5987.088867,1701.424072 5984.919922,1615.495850 5975.456055,1529.897827 
	C5972.237793,1500.790771 5968.176758,1471.742676 5963.371094,1442.855591 
	C5959.005859,1416.616821 5953.463379,1390.555664 5947.802246,1364.554810 
	C5938.017090,1319.611694 5925.020508,1275.507935 5909.194824,1232.375977 
	C5888.050293,1174.750488 5862.313477,1119.149902 5830.826172,1066.341431 
	C5800.721680,1015.851257 5766.407715,968.425720 5726.654785,925.075684 
	C5691.467285,886.702698 5653.589355,851.165833 5612.542480,819.069885 
	C5559.353516,777.479675 5502.089844,742.330383 5441.812012,712.122986 
	C5386.978516,684.643860 5330.169922,661.947388 5271.799805,642.990845 
	C5223.622070,627.344543 5174.999023,613.477112 5125.393555,603.280029 
	C5086.940918,595.375549 5048.459473,587.413147 5009.720703,581.146790 
	C4970.296875,574.769592 4930.625000,569.654053 4890.906738,565.453979 
	C4859.144531,562.095154 4827.133301,561.144165 4795.260254,558.758057 
	C4736.755371,554.378235 4678.185059,552.364441 4619.514648,552.390991 
	C4368.205566,552.504578 4116.896484,552.426514 3865.587402,552.480408 
	C3855.617676,552.482544 3845.648193,553.115112 3832.002197,552.959106 
M1763.617310,3738.390625 
	C1767.259644,3749.767822 1770.349121,3761.357666 1774.631714,3772.488525 
	C1808.442871,3860.366211 1869.852783,3920.322021 1958.528809,3951.686768 
	C2018.153198,3972.776123 2078.621582,3973.220703 2139.098389,3954.921631 
	C2199.685547,3936.589355 2249.169922,3901.406738 2287.852051,3851.929199 
	C2321.652832,3808.695312 2342.137695,3759.412842 2349.147705,3704.426270 
	C2354.362061,3663.526855 2352.249023,3623.565674 2341.634033,3583.795898 
	C2321.126465,3506.961182 2277.179443,3447.389404 2210.503418,3404.411377 
	C2181.680908,3385.833252 2150.394043,3372.302002 2116.983154,3365.426514 
	C2078.985840,3357.606934 2040.567017,3356.757080 2001.862183,3363.422852 
	C1958.326538,3370.920898 1918.561035,3387.273193 1883.151367,3412.799805 
	C1820.319214,3458.094238 1779.222412,3518.440186 1762.303467,3594.777100 
	C1751.894897,3641.739746 1751.678467,3688.387939 1763.617310,3738.390625 
z"/>
<path fill="#17163D" opacity="1.000000" stroke="none" 
	d="
M2841.107178,5284.902832 
	C2834.942627,5287.375000 2828.636475,5289.545410 2822.635010,5292.364746 
	C2741.849609,5330.319824 2659.284912,5363.645996 2574.091553,5390.549805 
	C2512.440430,5410.018555 2449.994385,5426.255859 2386.686279,5438.980957 
	C2348.195557,5446.717773 2309.393799,5453.462891 2270.433594,5458.208008 
	C2154.382568,5472.342773 2037.945190,5476.704102 1921.212158,5467.912598 
	C1883.998535,5465.109863 1846.705444,5462.849121 1809.652588,5458.572754 
	C1773.286377,5454.376465 1737.117188,5448.311035 1700.979126,5442.352051 
	C1674.058105,5437.914062 1647.195190,5432.931152 1620.543457,5427.106445 
	C1592.599243,5420.999023 1564.761597,5414.237305 1537.185547,5406.642578 
	C1454.340210,5383.825195 1373.402832,5355.604980 1294.666626,5320.983398 
	C1172.816528,5267.401855 1058.896240,5200.409180 952.450684,5120.619629 
	C838.423340,5035.146484 735.428406,4937.827637 642.615723,4829.796387 
	C521.516357,4688.839844 423.365509,4533.511719 351.671387,4361.786621 
	C318.546234,4282.443848 291.446594,4201.140625 270.278198,4117.766602 
	C258.962799,4073.199707 248.889175,4028.364990 241.197922,3983.120605 
	C231.489487,3926.009521 224.121765,3868.548584 219.249832,3810.715332 
	C210.950012,3712.192139 209.872986,3613.636475 214.912476,3515.013184 
	C216.916809,3475.788086 221.390594,3436.676270 225.247314,3397.562988 
	C227.403580,3375.695557 230.081375,3353.849854 233.456543,3332.139404 
	C237.752411,3304.506836 242.087402,3276.823975 248.038345,3249.518799 
	C256.822174,3209.215088 266.522980,3169.091064 276.779510,3129.133301 
	C291.681854,3071.076416 311.169861,3014.488037 332.658112,2958.536133 
	C381.096283,2832.411133 444.101318,2713.962646 519.742249,2602.171631 
	C582.620605,2509.242432 653.449341,2422.711914 730.860474,2341.514160 
	C802.727722,2266.131348 879.478516,2196.157715 962.016724,2132.620850 
	C1066.369995,2052.290527 1178.054565,1984.008911 1298.138428,1929.733398 
	C1372.203247,1896.257690 1448.317505,1868.467041 1526.667603,1846.589478 
	C1566.459473,1835.478394 1606.512695,1825.505737 1646.955078,1817.486816 
	C1695.281494,1807.904907 1744.001587,1800.489014 1793.082153,1795.228027 
	C1872.742676,1786.689087 1952.543945,1781.921021 2032.593384,1784.967163 
	C2080.519043,1786.790894 2128.366699,1790.946167 2176.207764,1794.599731 
	C2210.089355,1797.187134 2243.914551,1800.545776 2277.737793,1803.841187 
	C2295.639648,1805.585327 2313.489746,1807.878418 2331.343994,1810.077759 
	C2333.218994,1810.308716 2334.965576,1811.583618 2337.757568,1812.805786 
	C2338.297852,1816.217407 2339.347656,1820.004150 2339.416748,1823.808838 
	C2339.634277,1835.804565 2339.477051,1847.806763 2339.477051,1859.806519 
	C2339.478760,2321.129883 2339.485596,2782.453125 2339.444824,3243.776611 
	C2339.444336,3251.556152 2340.381592,3259.487305 2338.468506,3266.296875 
	C2332.777344,3269.401123 2329.729736,3266.657471 2326.511719,3264.280518 
	C2313.117432,3254.386719 2299.908447,3244.222656 2286.231201,3234.734619 
	C2238.329834,3201.505859 2187.081543,3174.990234 2130.818848,3158.908936 
	C2099.345215,3149.912842 2067.301270,3144.042480 2034.486816,3143.011230 
	C1964.215210,3140.802734 1896.529541,3152.623291 1831.873657,3180.597656 
	C1781.835083,3202.247559 1737.512451,3232.669434 1697.710693,3269.666504 
	C1638.804199,3324.421875 1592.948853,3388.344482 1563.908081,3463.716797 
	C1549.495117,3501.124023 1539.542114,3539.653320 1534.515625,3579.551758 
	C1531.009033,3607.384766 1528.275757,3635.169189 1528.799072,3663.239014 
	C1530.366699,3747.349609 1549.620239,3826.758301 1592.076904,3899.888672 
	C1624.546875,3955.817383 1666.729736,4003.415771 1716.407959,4044.697021 
	C1767.831543,4087.427979 1825.493164,4118.521973 1889.358398,4137.701172 
	C1927.083252,4149.029785 1965.943604,4155.161621 2005.346313,4157.335938 
	C2048.104248,4159.695801 2090.749512,4157.693848 2132.941895,4150.916016 
	C2206.418457,4139.112793 2274.252930,4113.061523 2332.999268,4066.286865 
	C2375.190430,4032.693604 2409.053711,3991.774658 2435.941162,3945.130859 
	C2465.720703,3893.470215 2486.065674,3838.117920 2501.307861,3780.540039 
	C2516.197998,3724.290283 2525.051025,3667.049805 2530.457031,3609.383301 
	C2535.181152,3558.989502 2537.630127,3508.341553 2537.537109,3457.616943 
	C2537.291260,3323.620361 2537.473145,3189.623047 2537.471191,3055.625977 
	C2537.458496,2230.977051 2537.441162,1406.328125 2537.440186,581.679199 
	C2537.440186,573.112305 2537.640625,564.545349 2537.760498,554.931152 
	C2542.627930,554.082031 2546.314697,553.214417 2550.050537,552.854309 
	C2553.353271,552.535889 2556.710693,552.780579 2560.043945,552.780640 
	C2980.701660,552.781799 3401.359131,552.782898 3822.016846,552.791992 
	C3825.345215,552.792053 3828.673828,552.901001 3834.145996,554.959595 
	C3836.464600,574.941406 3836.792236,592.922729 3836.792725,610.904053 
	C3836.817139,1573.266113 3836.789307,2535.628174 3836.865967,3497.990234 
	C3836.871338,3566.639404 3835.443359,3635.235352 3831.440918,3703.765625 
	C3830.199219,3725.026611 3828.727051,3746.294678 3826.536865,3767.474365 
	C3823.458252,3797.248047 3819.709961,3826.954834 3816.062012,3856.667236 
	C3813.143555,3880.439209 3810.760254,3904.317627 3806.691895,3927.898926 
	C3799.906006,3967.229492 3792.151855,4006.397217 3784.466797,4045.567139 
	C3768.041748,4129.288574 3744.728760,4211.198242 3717.324951,4291.886719 
	C3698.496582,4347.324219 3676.557861,4401.645508 3652.421875,4455.032227 
	C3625.241455,4515.152832 3594.488770,4573.389160 3560.640381,4630.023926 
	C3499.601074,4732.154297 3428.505371,4826.761719 3347.385742,4913.720703 
	C3316.041748,4947.320801 3283.151611,4979.434082 3248.878906,5010.182617 
	C3192.769531,5060.523438 3134.085693,5107.516602 3071.511719,5149.480469 
	C3035.576660,5173.580078 2999.138184,5197.076660 2961.745605,5218.814941 
	C2923.201660,5241.222656 2883.220703,5261.158203 2843.896729,5282.228027 
	C2842.802979,5282.813965 2842.029785,5283.997559 2841.107178,5284.902832 
z"/>
<path fill="#F56A22" opacity="1.000000" stroke="none" 
	d="
M2841.141602,5286.633789 
	C2842.029785,5283.997559 2842.802979,5282.813965 2843.896729,5282.228027 
	C2883.220703,5261.158203 2923.201660,5241.222656 2961.745605,5218.814941 
	C2999.138184,5197.076660 3035.576660,5173.580078 3071.511719,5149.480469 
	C3134.085693,5107.516602 3192.769531,5060.523438 3248.878906,5010.182617 
	C3283.151611,4979.434082 3316.041748,4947.320801 3347.385742,4913.720703 
	C3428.505371,4826.761719 3499.601074,4732.154297 3560.640381,4630.023926 
	C3594.488770,4573.389160 3625.241455,4515.152832 3652.421875,4455.032227 
	C3676.557861,4401.645508 3698.496582,4347.324219 3717.324951,4291.886719 
	C3744.728760,4211.198242 3768.041748,4129.288574 3784.466797,4045.567139 
	C3792.151855,4006.397217 3799.906006,3967.229492 3806.691895,3927.898926 
	C3810.760254,3904.317627 3813.143555,3880.439209 3816.062012,3856.667236 
	C3819.709961,3826.954834 3823.458252,3797.248047 3826.536865,3767.474365 
	C3828.727051,3746.294678 3830.199219,3725.026611 3831.440918,3703.765625 
	C3835.443359,3635.235352 3836.871338,3566.639404 3836.865967,3497.990234 
	C3836.789307,2535.628174 3836.817139,1573.266113 3836.792725,610.904053 
	C3836.792236,592.922729 3836.464600,574.941406 3835.983887,555.207031 
	C3845.648193,553.115112 3855.617676,552.482544 3865.587402,552.480408 
	C4116.896484,552.426514 4368.205566,552.504578 4619.514648,552.390991 
	C4678.185059,552.364441 4736.755371,554.378235 4795.260254,558.758057 
	C4827.133301,561.144165 4859.144531,562.095154 4890.906738,565.453979 
	C4930.625000,569.654053 4970.296875,574.769592 5009.720703,581.146790 
	C5048.459473,587.413147 5086.940918,595.375549 5125.393555,603.280029 
	C5174.999023,613.477112 5223.622070,627.344543 5271.799805,642.990845 
	C5330.169922,661.947388 5386.978516,684.643860 5441.812012,712.122986 
	C5502.089844,742.330383 5559.353516,777.479675 5612.542480,819.069885 
	C5653.589355,851.165833 5691.467285,886.702698 5726.654785,925.075684 
	C5766.407715,968.425720 5800.721680,1015.851257 5830.826172,1066.341431 
	C5862.313477,1119.149902 5888.050293,1174.750488 5909.194824,1232.375977 
	C5925.020508,1275.507935 5938.017090,1319.611694 5947.802246,1364.554810 
	C5953.463379,1390.555664 5959.005859,1416.616821 5963.371094,1442.855591 
	C5968.176758,1471.742676 5972.237793,1500.790771 5975.456055,1529.897827 
	C5984.919922,1615.495850 5987.088867,1701.424072 5983.292969,1787.382812 
	C5981.150391,1835.891357 5976.718750,1884.273560 5969.171387,1932.411499 
	C5961.210938,1983.184326 5950.435059,2033.187012 5936.119141,2082.481934 
	C5918.797852,2142.125488 5895.869629,2199.483887 5867.431152,2254.754639 
	C5837.734375,2312.469971 5802.402832,2366.379150 5760.815918,2416.117676 
	C5714.482422,2471.533691 5662.165039,2520.671143 5604.532227,2564.319580 
	C5549.096191,2606.304199 5489.845703,2642.004883 5427.955078,2673.336426 
	C5380.997070,2697.108643 5332.582031,2717.812744 5282.968750,2735.420166 
	C5249.746582,2747.210693 5215.982910,2757.475830 5182.453613,2768.399414 
	C5177.501465,2770.012939 5177.481445,2769.951660 5173.285645,2778.159668 
	C5188.062500,2782.435059 5202.567383,2786.968018 5217.250977,2790.820557 
	C5271.381836,2805.023193 5324.391113,2822.581543 5376.946289,2841.812500 
	C5444.047363,2866.365967 5508.748047,2896.062256 5571.236328,2930.466309 
	C5646.736816,2972.034668 5717.040527,3021.081787 5781.598633,3078.462891 
	C5840.673340,3130.969727 5892.874512,3189.410889 5938.433105,3253.852783 
	C5987.088379,3322.675781 6026.190430,3396.605957 6057.534180,3474.872559 
	C6076.395508,3521.971191 6091.826172,3570.105957 6104.923828,3618.980225 
	C6116.638672,3662.696777 6126.013184,3706.998535 6132.416504,3751.873047 
	C6135.613281,3774.279785 6139.694336,3796.570801 6142.434082,3819.028809 
	C6145.013672,3840.172852 6146.820312,3861.439209 6148.134277,3882.703125 
	C6150.064941,3913.947998 6151.407715,3945.232178 6152.709961,3976.511719 
	C6153.706543,4000.462402 6155.581543,4024.478271 6154.737793,4048.383057 
	C6152.624023,4108.270020 6151.749512,4168.179199 6145.802246,4227.967773 
	C6141.844238,4267.753906 6137.422363,4307.447754 6131.314453,4346.892090 
	C6124.288086,4392.266602 6115.144043,4437.279297 6103.166016,4481.704590 
	C6093.105469,4519.016113 6082.676758,4556.184570 6069.282227,4592.440918 
	C6060.518066,4616.166504 6051.862305,4639.983398 6041.785645,4663.163086 
	C6009.791504,4736.756348 5970.179199,4806.084473 5921.873047,4870.211914 
	C5882.865234,4921.994141 5838.577148,4969.089844 5789.449707,5011.340332 
	C5718.848145,5072.059570 5640.898926,5121.480957 5556.417480,5160.846680 
	C5483.742188,5194.710938 5408.397949,5220.972168 5331.054688,5241.413086 
	C5287.973145,5252.798828 5244.359375,5262.344238 5200.220703,5269.032715 
	C5160.734863,5275.017090 5121.354980,5282.017090 5081.690430,5286.426758 
	C5040.677734,5290.986816 4999.363281,5292.770996 4958.208984,5296.118164 
	C4895.006348,5301.258301 4831.679199,5300.073730 4768.385254,5300.083008 
	C4141.779297,5300.172363 3515.173096,5300.145020 2888.567139,5300.143066 
	C2877.235107,5300.143066 2865.889404,5299.700195 2854.575684,5300.133789 
	C2845.909668,5300.466309 2842.884521,5295.417969 2841.141602,5286.633789 
M4030.371094,3008.702393 
	C4020.613770,3009.505127 4010.473145,3006.789062 4000.447510,3011.718506 
	C3999.966064,3016.364746 3999.163574,3020.919922 3999.083496,3025.488037 
	C3998.861328,3038.149170 3998.905029,3050.816162 3998.904785,3063.480713 
	C3998.900146,3650.725830 3998.901123,4237.970703 3998.907471,4825.215820 
	C3998.907715,4845.212891 3998.867920,4865.210449 3999.030273,4885.206543 
	C3999.207764,4907.062988 3999.301025,4907.187988 4021.608154,4907.195801 
	C4127.592285,4907.232910 4233.583496,4907.875000 4339.556641,4906.807617 
	C4375.430176,4906.445801 4411.530762,4903.580566 4447.042480,4898.481934 
	C4493.832520,4891.763672 4539.786621,4880.523926 4584.096680,4863.237305 
	C4621.522461,4848.635742 4656.981934,4830.370117 4689.966797,4807.597168 
	C4727.952148,4781.371094 4762.094238,4750.806152 4791.567383,4715.031250 
	C4825.212891,4674.191406 4853.449219,4630.085938 4876.010254,4582.205566 
	C4897.357910,4536.899414 4914.468750,4490.112305 4927.924805,4441.902344 
	C4940.114258,4398.230957 4949.406250,4353.947266 4956.239258,4309.168457 
	C4959.953125,4284.830078 4962.957520,4260.354004 4965.333984,4235.848145 
	C4969.125488,4196.752441 4973.955566,4157.634277 4975.097168,4118.430664 
	C4977.793945,4025.833496 4978.396973,3933.179443 4971.111328,3840.692871 
	C4968.601074,3808.823242 4966.908691,3776.820312 4962.635742,3745.176270 
	C4957.472168,3706.940674 4952.392578,3668.682129 4945.349121,3630.662842 
	C4932.591309,3561.801025 4915.872070,3494.093994 4891.779785,3428.333740 
	C4868.787598,3365.575928 4840.019043,3305.675537 4801.695312,3250.615234 
	C4769.511230,3204.375244 4732.086426,3163.045654 4687.822266,3128.111328 
	C4608.379883,3065.413086 4517.199219,3030.675781 4417.765137,3016.643066 
	C4378.199707,3011.058838 4338.315430,3008.433594 4298.229492,3008.623047 
	C4210.244629,3009.039307 4122.256348,3008.717041 4030.371094,3008.702393 
M3998.900391,1502.000000 
	C3999.193848,1871.154297 3999.485840,2240.308594 3999.859375,2609.462891 
	C3999.860596,2610.594971 4001.052490,2611.726318 4002.133057,2613.650146 
	C4008.407715,2616.825439 4015.861572,2615.503418 4023.015381,2615.509766 
	C4134.302734,2615.608154 4245.590332,2615.430664 4356.877441,2615.646484 
	C4396.438965,2615.723145 4435.192383,2610.281250 4473.486816,2600.834717 
	C4522.676758,2588.700195 4567.219238,2566.569336 4607.742676,2536.582275 
	C4642.833008,2510.615967 4671.682617,2478.396484 4696.833008,2442.815430 
	C4741.586914,2379.500977 4770.324707,2308.789795 4792.109863,2235.001221 
	C4808.909668,2178.100342 4820.316406,2119.977051 4828.401855,2061.240234 
	C4832.031250,2034.878540 4833.691895,2008.243164 4837.432617,1981.900635 
	C4844.099121,1934.962769 4845.292480,1887.633423 4847.042480,1840.454834 
	C4849.808105,1765.898193 4850.339355,1691.235718 4844.250488,1616.729492 
	C4841.268066,1580.235962 4839.707520,1543.541504 4834.751465,1507.314453 
	C4827.810547,1456.577759 4818.935547,1406.148193 4805.837891,1356.429932 
	C4793.752930,1310.558838 4778.566895,1265.954712 4759.254883,1222.763794 
	C4736.265625,1171.347534 4706.357422,1124.213257 4668.040039,1082.772583 
	C4637.055176,1049.262939 4601.286133,1021.815247 4561.024414,1000.116638 
	C4517.750000,976.794128 4471.411621,962.261230 4423.402344,953.781494 
	C4390.663086,947.998901 4357.252441,946.674194 4323.852539,946.772644 
	C4225.227539,947.063293 4126.601074,946.869080 4027.975098,946.876465 
	C4022.644287,946.876892 4017.288574,946.691040 4011.991455,947.144531 
	C4008.230225,947.466553 4004.548828,948.719421 4001.564209,949.391846 
	C4000.584229,951.837708 3999.672363,953.052368 3999.670410,954.268616 
	C3999.370361,1135.512329 3999.135986,1316.756104 3998.900391,1502.000000 
z"/>
<path fill="#F56B24" opacity="1.000000" stroke="none" 
	d="
M1763.324219,3736.749023 
	C1751.678467,3688.387939 1751.894897,3641.739746 1762.303467,3594.777100 
	C1779.222412,3518.440186 1820.319214,3458.094238 1883.151367,3412.799805 
	C1918.561035,3387.273193 1958.326538,3370.920898 2001.862183,3363.422852 
	C2040.567017,3356.757080 2078.985840,3357.606934 2116.983154,3365.426514 
	C2150.394043,3372.302002 2181.680908,3385.833252 2210.503418,3404.411377 
	C2277.179443,3447.389404 2321.126465,3506.961182 2341.634033,3583.795898 
	C2352.249023,3623.565674 2354.362061,3663.526855 2349.147705,3704.426270 
	C2342.137695,3759.412842 2321.652832,3808.695312 2287.852051,3851.929199 
	C2249.169922,3901.406738 2199.685547,3936.589355 2139.098389,3954.921631 
	C2078.621582,3973.220703 2018.153198,3972.776123 1958.528809,3951.686768 
	C1869.852783,3920.322021 1808.442871,3860.366211 1774.631714,3772.488525 
	C1770.349121,3761.357666 1767.259644,3749.767822 1763.324219,3736.749023 
z"/>
<path fill="#FFFEFE" opacity="1.000000" stroke="none" 
	d="
M4032.320312,3008.699219 
	C4122.256348,3008.717041 4210.244629,3009.039307 4298.229492,3008.623047 
	C4338.315430,3008.433594 4378.199707,3011.058838 4417.765137,3016.643066 
	C4517.199219,3030.675781 4608.379883,3065.413086 4687.822266,3128.111328 
	C4732.086426,3163.045654 4769.511230,3204.375244 4801.695312,3250.615234 
	C4840.019043,3305.675537 4868.787598,3365.575928 4891.779785,3428.333740 
	C4915.872070,3494.093994 4932.591309,3561.801025 4945.349121,3630.662842 
	C4952.392578,3668.682129 4957.472168,3706.940674 4962.635742,3745.176270 
	C4966.908691,3776.820312 4968.601074,3808.823242 4971.111328,3840.692871 
	C4978.396973,3933.179443 4977.793945,4025.833496 4975.097168,4118.430664 
	C4973.955566,4157.634277 4969.125488,4196.752441 4965.333984,4235.848145 
	C4962.957520,4260.354004 4959.953125,4284.830078 4956.239258,4309.168457 
	C4949.406250,4353.947266 4940.114258,4398.230957 4927.924805,4441.902344 
	C4914.468750,4490.112305 4897.357910,4536.899414 4876.010254,4582.205566 
	C4853.449219,4630.085938 4825.212891,4674.191406 4791.567383,4715.031250 
	C4762.094238,4750.806152 4727.952148,4781.371094 4689.966797,4807.597168 
	C4656.981934,4830.370117 4621.522461,4848.635742 4584.096680,4863.237305 
	C4539.786621,4880.523926 4493.832520,4891.763672 4447.042480,4898.481934 
	C4411.530762,4903.580566 4375.430176,4906.445801 4339.556641,4906.807617 
	C4233.583496,4907.875000 4127.592285,4907.232910 4021.608154,4907.195801 
	C3999.301025,4907.187988 3999.207764,4907.062988 3999.030273,4885.206543 
	C3998.867920,4865.210449 3998.907715,4845.212891 3998.907471,4825.215820 
	C3998.901123,4237.970703 3998.900146,3650.725830 3998.904785,3063.480713 
	C3998.905029,3050.816162 3998.861328,3038.149170 3999.083496,3025.488037 
	C3999.163574,3020.919922 3999.966064,3016.364746 4000.447510,3011.718506 
	C4010.473145,3006.789062 4020.613770,3009.505127 4032.320312,3008.699219 
z"/>
<path fill="#FFFEFE" opacity="1.000000" stroke="none" 
	d="
M3998.899414,1500.000000 
	C3999.135986,1316.756104 3999.370361,1135.512329 3999.670410,954.268616 
	C3999.672363,953.052368 4000.584229,951.837708 4001.564209,949.391846 
	C4004.548828,948.719421 4008.230225,947.466553 4011.991455,947.144531 
	C4017.288574,946.691040 4022.644287,946.876892 4027.975098,946.876465 
	C4126.601074,946.869080 4225.227539,947.063293 4323.852539,946.772644 
	C4357.252441,946.674194 4390.663086,947.998901 4423.402344,953.781494 
	C4471.411621,962.261230 4517.750000,976.794128 4561.024414,1000.116638 
	C4601.286133,1021.815247 4637.055176,1049.262939 4668.040039,1082.772583 
	C4706.357422,1124.213257 4736.265625,1171.347534 4759.254883,1222.763794 
	C4778.566895,1265.954712 4793.752930,1310.558838 4805.837891,1356.429932 
	C4818.935547,1406.148193 4827.810547,1456.577759 4834.751465,1507.314453 
	C4839.707520,1543.541504 4841.268066,1580.235962 4844.250488,1616.729492 
	C4850.339355,1691.235718 4849.808105,1765.898193 4847.042480,1840.454834 
	C4845.292480,1887.633423 4844.099121,1934.962769 4837.432617,1981.900635 
	C4833.691895,2008.243164 4832.031250,2034.878540 4828.401855,2061.240234 
	C4820.316406,2119.977051 4808.909668,2178.100342 4792.109863,2235.001221 
	C4770.324707,2308.789795 4741.586914,2379.500977 4696.833008,2442.815430 
	C4671.682617,2478.396484 4642.833008,2510.615967 4607.742676,2536.582275 
	C4567.219238,2566.569336 4522.676758,2588.700195 4473.486816,2600.834717 
	C4435.192383,2610.281250 4396.438965,2615.723145 4356.877441,2615.646484 
	C4245.590332,2615.430664 4134.302734,2615.608154 4023.015381,2615.509766 
	C4015.861572,2615.503418 4008.407715,2616.825439 4002.133057,2613.650146 
	C4001.052490,2611.726318 3999.860596,2610.594971 3999.859375,2609.462891 
	C3999.485840,2240.308594 3999.193848,1871.154297 3998.899414,1500.000000 
z"/>
</svg>